<svg width="161" height="160" viewBox="0 0 161 160" fill="none" xmlns="http://www.w3.org/2000/svg">
<path d="M135 103.5C135 103.5 138.5 108.5 137.5 114.5C136.5 120.5 132.5 124 132.5 124M138.5 99.5C138.5 99.5 140 101.5 140.5 104C141 106.5 140.5 109 140.5 109M30.4987 82.5C30.4987 82.5 24.9987 86.5 23.4987 92.5C21.9987 98.5 23.4987 105 23.4987 105M29.1558 75.5117C29.1558 75.5117 23.4005 79.1347 21.5024 85.0209C19.6044 90.9071 20.001 94.499 20.001 94.499" stroke="#1B2323" stroke-width="1.5" stroke-linecap="round"/>
<path fill-rule="evenodd" clip-rule="evenodd" d="M100.487 16.0532C95.921 14.7146 91.1375 17.2707 89.6942 21.7769C92.8343 22.3027 96.3092 23.0687 100.211 24.0302C100.531 23.7054 101.157 23.366 101.82 23.006C102.674 22.5423 103.592 22.0445 104 21.5C104.852 20.3641 104.897 19.3895 104.503 18.5647C103.457 17.4116 102.091 16.5232 100.487 16.0532ZM100.909 14.6138C95.4856 13.0239 89.8002 16.1245 88.1975 21.541C84.3378 20.9724 80.996 20.8042 77.9824 21.1284C71.9545 21.7768 67.2991 24.3855 62.4564 29.4831C57.5435 34.6545 55.1382 43.1098 53.269 51.4605C52.8747 53.2219 52.5058 54.9726 52.1428 56.695L52.1427 56.6953L52.1427 56.6954C51.6345 59.1067 51.138 61.4626 50.6 63.7154C49.6808 67.5637 48.6654 70.994 47.3306 73.6635C44.9491 78.4262 40.4372 82.8215 36.5767 86.5822C36.0933 87.0531 35.6202 87.514 35.1627 87.9645C33.1515 89.9447 31.3915 91.7731 30.5393 93.3255C30.1116 94.1047 29.8414 94.9381 30.0056 95.7493C30.1786 96.6038 30.7876 97.2305 31.666 97.6697C34.7481 99.2108 40.7055 100.979 48.3693 103.035C51.9344 103.992 55.8884 105.015 60.1217 106.111L60.1243 106.112L60.1314 106.113L60.1336 106.114L61.1335 106.373C61.4821 106.463 61.8326 106.554 62.1849 106.645C59.7594 116.021 65.7344 124.295 74.9775 126.883C80.9505 128.556 86.194 126.94 90.1841 123.661C93.78 121.022 96.9294 117.048 95.7821 114.864C95.0296 113.432 85.0912 110.862 76.3921 108.858C76.3324 108.821 76.2665 108.793 76.1955 108.774C71.067 107.398 66.1266 106.116 61.5094 104.921L60.5121 104.662C56.272 103.565 52.32 102.542 48.758 101.587C41.0469 99.5179 35.2544 97.7869 32.3368 96.3281C31.7153 96.0173 31.5274 95.7065 31.4758 95.4516C31.4155 95.1534 31.4929 94.7056 31.8543 94.0473C32.5802 92.7247 34.1639 91.053 36.2151 89.0333C36.6651 88.5902 37.1353 88.1327 37.6195 87.6615C41.4542 83.9298 46.1678 79.3428 48.6722 74.3343C50.0875 71.5038 51.1345 67.9343 52.0589 64.0639C52.5986 61.8042 53.1051 59.4019 53.6188 56.9656L53.6188 56.9655C53.9818 55.2439 54.3484 53.5054 54.7328 51.7881C56.6128 43.3892 58.9568 35.3448 63.5439 30.5162C68.2011 25.6139 72.5458 23.2219 78.1429 22.6198C83.4282 22.0512 89.8813 23.0705 98.8481 25.2413C103.139 27.7038 116.218 36.0537 116.5 46.4994C116.694 53.6744 114.524 60.8494 112.639 67.0789L112.639 67.0789C111.241 71.7021 110 75.8045 110 78.9994C110 82.4631 111.28 87.313 112.509 91.9734C113.942 97.4043 115.307 102.578 114.5 104.999C113.552 107.843 100.027 107.093 89.9456 106.534H89.9454C84.0725 106.208 79.3682 105.948 79.0001 106.5C78 108 125 121.499 130 117.499C133.015 115.087 130.03 107.947 126.856 100.355C124.766 95.3591 122.595 90.1672 122 85.9995C120.926 78.4792 122.701 70.1896 124.326 62.5999L124.326 62.5998L124.326 62.5996C124.969 59.5925 125.59 56.6954 126 53.9994C127.446 44.4989 124.5 38.0005 117.5 32.5C113.804 29.8991 110.632 28.1228 107.976 26.9145C109.293 21.6112 106.202 16.1653 100.909 14.6138ZM75.7708 125.543C78.2289 124.619 82.5106 122.753 83.989 119.704C85.8506 115.864 75.4733 111.114 68.6815 108.335C66.9679 107.887 65.2845 107.449 63.6369 107.021C61.4574 115.458 66.765 123.026 75.382 125.439C75.5119 125.475 75.6416 125.51 75.7708 125.543Z" fill="#1B2323"/>
<path d="M115 145C115 146.657 98.8823 148 79 148C59.1177 148 43 146.657 43 145C43 143.343 59.1177 142 79 142C98.8823 142 115 143.343 115 145Z" fill="#1B2323"/>
</svg>
